<svg xmlns="http://www.w3.org/2000/svg" viewBox="0 0 34.74 30.14"><path d="M0,10.61,3.65,4H20.28a2.41,2.41,0,0,1,2.09,3.61L12.66,24.52a1.52,1.52,0,0,1-1.33.77H8.52l3.65-6.62-2.87.12A1.53,1.53,0,0,0,8,19.55L3.86,26.78H14.2c1.72,0,3.94-1.65,4.82-3.13l7.56,0-1.53,2.74a7.28,7.28,0,0,1-6.36,3.73H2.87A2.73,2.73,0,0,1,.5,26L6.78,15.15,9.2,10.47A2.7,2.7,0,0,1,11.53,9l2.71-.08-3.92,6.6,2.87-.15a1.53,1.53,0,0,0,1.28-.8l3.88-7.2L5.86,7.44,4.9,9a3.68,3.68,0,0,1-3.15,1.69Z" style="fill:#3591d0"/><path d="M20.37,22.52,27.43,9.1a4.12,4.12,0,0,0-3.65-6H4.17L5.62.68A1.52,1.52,0,0,1,6.89,0H26.15c4.37,0,10.29,2.58,8.13,8.5l-7,13.21a1.51,1.51,0,0,1-1.35.81Z" style="fill:#3591d0"/></svg>